<svg id="svg" version="1.1" xmlns:inkscape="http://www.inkscape.org/namespaces/inkscape" xmlns:sodipodi="http://sodipodi.sourceforge.net/DTD/sodipodi-0.dtd" xmlns="http://www.w3.org/2000/svg" xmlns:svg="http://www.w3.org/2000/svg" viewBox="0 0 248 78">
  <defs></defs>
  <path d="M 226.349 10.791 C 227.76 11.971 229.15 13.174 230.521 14.401 C 231.517 15.254 234.007 17.301 234.725 18.244 C 233.039 20.536 229.714 23.957 227.703 26.314 L 232.793 30.787 C 233.463 31.374 234.968 32.636 235.474 33.249 C 233.707 35.289 229.847 39.965 227.991 41.711 C 225.378 39.514 222.825 37.247 220.335 34.913 C 218.684 36.765 214.786 41.387 213.217 42.795 C 211.778 41.572 210.36 40.323 208.966 39.049 C 207.911 38.155 205.474 36.139 204.714 35.151 C 205.336 34.344 206.452 33.176 207.157 32.369 C 208.667 30.612 210.195 28.87 211.74 27.143 C 210.396 26.117 208.947 24.735 207.659 23.607 C 206.537 22.626 205.109 21.462 204.119 20.39 C 204.837 18.99 210.185 13.123 211.443 11.893 C 213.406 13.28 217.393 17.018 219.325 18.732 C 221.64 16.281 223.954 13.363 226.349 10.791 L 226.349 10.791 Z" fill="#1671b8" id="path2" style="font-family:none;mix-blend-mode:normal;fill-rule:nonzero;stroke:none;stroke-width:1;stroke-linecap:butt;stroke-linejoin:miter;stroke-miterlimit:10;stroke-dasharray:none;stroke-dashoffset:0"></path>
  <path d="M 226.349 10.791 C 227.76 11.971 229.15 13.174 230.521 14.401 C 225.344 20.427 220.11 26.404 214.821 32.332 C 214.043 33.219 209.383 38.379 208.966 39.049 C 207.911 38.155 205.474 36.139 204.714 35.151 C 205.336 34.344 206.452 33.176 207.157 32.369 C 208.667 30.612 210.195 28.87 211.74 27.143 C 210.396 26.117 208.947 24.735 207.659 23.607 C 206.537 22.626 205.109 21.462 204.119 20.39 C 204.837 18.99 210.185 13.123 211.443 11.893 C 213.406 13.28 217.393 17.018 219.325 18.732 C 221.64 16.281 223.954 13.363 226.349 10.791 L 226.349 10.791 Z" fill="#3c92d6" id="path3" style="font-family:none;mix-blend-mode:normal;fill-rule:nonzero;stroke:none;stroke-width:1;stroke-linecap:butt;stroke-linejoin:miter;stroke-miterlimit:10;stroke-dasharray:none;stroke-dashoffset:0"></path>
  <path d="M 176.285 38.909 C 177.343 37.352 181.503 32.897 182.988 31.193 L 188.984 24.278 C 190.115 22.976 191.641 21.138 192.878 19.996 C 194.071 20.782 195.689 22.332 196.786 23.334 C 197.846 24.224 199.871 25.856 200.599 26.919 C 197.542 30.674 194.159 34.214 191.089 37.928 C 192.889 39.537 203.026 48.137 203.49 49.073 C 203.184 50.019 201.048 52.198 200.278 53.041 C 199.289 54.253 197.944 55.798 196.818 56.863 C 195.842 56.188 194.46 54.911 193.515 54.088 L 187.006 48.357 C 184.26 45.952 178.648 41.393 176.285 38.909 L 176.285 38.909 Z" fill="#e54f4b" id="path4" style="font-family:none;mix-blend-mode:normal;fill-rule:nonzero;stroke:none;stroke-width:1;stroke-linecap:butt;stroke-linejoin:miter;stroke-miterlimit:10;stroke-dasharray:none;stroke-dashoffset:0"></path>
  <path d="M 183.608 38.382 C 186.235 35.183 189.306 32.084 191.934 28.839 C 193.342 27.102 195.192 24.839 196.786 23.334 C 197.846 24.224 199.871 25.856 200.599 26.919 C 197.542 30.674 194.159 34.214 191.089 37.928 C 192.889 39.537 203.026 48.137 203.49 49.073 C 203.184 50.019 201.048 52.198 200.278 53.041 C 198.949 51.67 197.092 50.249 195.62 48.937 L 183.608 38.382 Z" fill="#db3330" id="path5" style="font-family:none;mix-blend-mode:normal;fill-rule:nonzero;stroke:none;stroke-width:1;stroke-linecap:butt;stroke-linejoin:miter;stroke-miterlimit:10;stroke-dasharray:none;stroke-dashoffset:0"></path>
  <path d="M 221.129 43.669 C 222.158 44.377 224.49 46.473 225.539 47.372 C 226.587 48.272 228.834 50.12 229.636 51.115 C 228.668 52.801 208.258 76.111 207.785 76.305 C 207.634 76.367 207.34 76.173 207.201 76.091 C 205.863 75.305 204.607 73.922 203.452 72.875 C 202.516 72.102 199.645 69.938 199.308 68.892 C 199.784 67.764 219.731 44.955 221.129 43.669 L 221.129 43.669 Z" fill="#f3c918" id="path6" style="font-family:none;mix-blend-mode:normal;fill-rule:nonzero;stroke:none;stroke-width:1;stroke-linecap:butt;stroke-linejoin:miter;stroke-miterlimit:10;stroke-dasharray:none;stroke-dashoffset:0"></path>
  <path d="M 225.539 47.372 C 226.587 48.272 228.834 50.12 229.636 51.115 C 228.668 52.801 208.258 76.111 207.785 76.305 C 207.634 76.367 207.34 76.173 207.201 76.091 C 205.863 75.305 204.607 73.922 203.452 72.875 C 206.074 69.399 210.098 65.018 213.015 61.663 C 217.053 57.016 221.341 51.792 225.539 47.372 Z" fill="#ebaf13" id="path7" style="font-family:none;mix-blend-mode:normal;fill-rule:nonzero;stroke:none;stroke-width:1;stroke-linecap:butt;stroke-linejoin:miter;stroke-miterlimit:10;stroke-dasharray:none;stroke-dashoffset:0"></path>
  <path d="M 0.591 28.92 C 4.523 28.915 8.479 28.823 12.405 29.017 C 17.908 29.287 20.598 35.124 15.894 38.673 C 18.946 40.516 20.178 43.126 18.45 46.464 C 16.243 49.982 10.703 49.31 7.112 49.396 C 4.979 49.448 2.745 49.388 0.603 49.381 Z M 5.329 45.559 C 7.348 45.573 12.004 45.854 13.542 45.021 C 14.307 44.141 14.987 42.509 13.802 41.723 C 11.679 40.317 7.823 40.879 5.341 40.82 C 5.353 42.382 5.387 44.002 5.329 45.559 Z M 5.336 37.222 C 7.304 37.219 11.014 37.438 12.642 36.675 C 15.264 33.998 12.252 32.559 9.728 32.581 C 8.273 32.593 6.771 32.571 5.311 32.58 C 5.33 34.127 5.339 35.675 5.336 37.222 Z" fill="#1671b8" id="path8" style="font-family:none;mix-blend-mode:normal;fill-rule:nonzero;stroke:none;stroke-width:1;stroke-linecap:butt;stroke-linejoin:miter;stroke-miterlimit:10;stroke-dasharray:none;stroke-dashoffset:0"></path>
  <path d="M 128.671 33.525 C 131.007 33.408 132.215 34.167 133.868 35.577 L 133.893 33.756 C 135.33 33.769 136.79 33.748 138.229 33.741 C 138.276 36.528 138.226 39.34 138.229 42.133 C 138.232 47.217 138.873 53.593 132.44 54.993 C 128.584 55.831 125.194 55.201 121.859 53.148 L 122.427 51.999 L 123.693 49.808 C 125.405 50.87 126.917 51.534 128.981 51.551 C 132.365 51.578 133.553 50.167 133.603 46.997 C 130.68 49.126 126.923 49.373 123.973 47.123 C 122.442 45.934 121.446 44.186 121.203 42.263 C 120.558 37.134 123.775 34.009 128.671 33.525 Z M 125.914 41.848 C 126.337 43.936 128.363 45.293 130.455 44.89 C 132.576 44.481 133.956 42.421 133.527 40.304 C 133.097 38.187 131.023 36.827 128.911 37.277 C 126.828 37.72 125.49 39.76 125.914 41.848 Z" fill="#db3330" id="path11" style="font-family:none;mix-blend-mode:normal;fill-rule:nonzero;stroke:none;stroke-width:1;stroke-linecap:butt;stroke-linejoin:miter;stroke-miterlimit:10;stroke-dasharray:none;stroke-dashoffset:0"></path>
  <path d="M 110.104 33.517 C 111.792 33.289 114.327 33.958 115.734 34.843 C 120.98 38.139 120.456 46.472 114.622 48.834 C 113.637 49.233 112.918 49.375 111.885 49.582 C 109.39 49.683 107.312 49.475 105.198 47.899 C 103.546 46.674 102.459 44.832 102.185 42.793 C 101.396 37.258 105.041 34.264 110.104 33.517 Z M 111.448 45.714 C 116.206 44.372 115.821 37.182 110.065 37.313 C 105.093 38.46 105.794 46.173 111.448 45.714 Z" fill="#db3330" id="path13" style="font-family:none;mix-blend-mode:normal;fill-rule:nonzero;stroke:none;stroke-width:1;stroke-linecap:butt;stroke-linejoin:miter;stroke-miterlimit:10;stroke-dasharray:none;stroke-dashoffset:0"></path>
  <path d="M 38.194 33.526 C 50.128 33.832 49.304 49.368 38.706 49.595 C 36.333 49.596 34.531 49.209 32.668 47.726 C 27.371 43.509 29.481 35.005 36.136 33.754 C 36.843 33.622 37.493 33.577 38.194 33.526 Z M 38.8 45.764 C 44.054 44.367 43.135 37.24 37.857 37.309 C 32.704 38.47 33.302 45.894 38.8 45.764 Z" fill="#1671b8" id="path15" style="font-family:none;mix-blend-mode:normal;fill-rule:nonzero;stroke:none;stroke-width:1;stroke-linecap:butt;stroke-linejoin:miter;stroke-miterlimit:10;stroke-dasharray:none;stroke-dashoffset:0"></path>
  <path d="M 66.913 27.748 L 71.506 27.752 C 71.466 31.767 71.569 35.851 71.554 39.885 C 73.084 38.169 76.024 35.244 77.721 33.695 C 79.468 33.639 81.444 33.704 83.207 33.724 C 81.183 35.665 78.93 38.104 76.922 40.139 L 81.608 46.246 C 82.394 47.293 83.227 48.345 84.029 49.384 L 78.368 49.399 C 76.932 47.498 75.096 44.924 73.565 43.172 L 71.559 45.183 C 71.506 46.494 71.563 48.076 71.578 49.406 L 66.912 49.391 C 66.731 42.469 66.905 34.75 66.913 27.748 L 66.913 27.748 Z" fill="#1671b8" id="path17" style="font-family:none;mix-blend-mode:normal;fill-rule:nonzero;stroke:none;stroke-width:1;stroke-linecap:butt;stroke-linejoin:miter;stroke-miterlimit:10;stroke-dasharray:none;stroke-dashoffset:0"></path>
  <path d="M 86.147 28.918 C 87.683 28.947 89.273 28.92 90.813 28.915 L 90.806 45.356 C 94.128 45.299 97.562 45.334 100.893 45.33 C 100.932 46.66 100.912 48.064 100.915 49.401 C 96.141 49.266 90.963 49.402 86.129 49.377 L 86.147 28.918 Z" fill="#db3330" id="path18" style="font-family:none;mix-blend-mode:normal;fill-rule:nonzero;stroke:none;stroke-width:1;stroke-linecap:butt;stroke-linejoin:miter;stroke-miterlimit:10;stroke-dasharray:none;stroke-dashoffset:0"></path>
  <path d="M 156.973 33.658 C 160.521 33.057 163.506 34.34 165.522 37.294 L 161.917 39.368 C 158.467 34.834 152.955 38.309 154.688 43.297 C 155.638 46.034 158.956 46.567 160.94 44.705 C 161.303 44.363 161.596 43.866 162.043 43.688 L 162.486 43.925 L 165.547 45.499 C 162.916 49.973 157.398 50.843 153.087 48.137 C 147.885 44.872 148.812 36.096 154.752 34.173 C 155.584 33.904 156.104 33.787 156.973 33.658 L 156.973 33.658 Z" fill="#db3330" id="path19" style="font-family:none;mix-blend-mode:normal;fill-rule:nonzero;stroke:none;stroke-width:1;stroke-linecap:butt;stroke-linejoin:miter;stroke-miterlimit:10;stroke-dasharray:none;stroke-dashoffset:0"></path>
  <path d="M 56.544 33.523 C 59.539 33.022 63.134 34.623 64.461 37.443 C 63.263 38.088 62.075 38.751 60.897 39.433 C 59.078 36.942 56.079 36.168 54.197 38.855 C 50.917 43.541 57.186 49.02 60.905 43.54 L 62.19 44.222 C 62.903 44.57 63.776 45.106 64.478 45.51 C 62.068 50.168 55.629 50.802 51.746 47.821 C 50.105 46.558 49.043 44.687 48.798 42.632 C 48.123 37.397 51.576 34.098 56.544 33.523 L 56.544 33.523 Z" fill="#1671b8" id="path20" style="font-family:none;mix-blend-mode:normal;fill-rule:nonzero;stroke:none;stroke-width:1;stroke-linecap:butt;stroke-linejoin:miter;stroke-miterlimit:10;stroke-dasharray:none;stroke-dashoffset:0"></path>
  <path d="M 22.296 27.755 L 26.957 27.751 C 26.952 34.855 27.059 42.299 26.926 49.38 L 22.289 49.393 C 22.172 42.336 22.225 34.823 22.296 27.755 L 22.296 27.755 Z" fill="#1671b8" id="path21" style="font-family:none;mix-blend-mode:normal;fill-rule:nonzero;stroke:none;stroke-width:1;stroke-linecap:butt;stroke-linejoin:miter;stroke-miterlimit:10;stroke-dasharray:none;stroke-dashoffset:0"></path>
  <path d="M 142.219 33.749 C 143.738 33.771 145.257 33.756 146.776 33.702 L 146.789 49.371 C 145.297 49.406 143.71 49.353 142.21 49.327 L 142.219 33.749 Z" fill="#db3330" id="path22" style="font-family:none;mix-blend-mode:normal;fill-rule:nonzero;stroke:none;stroke-width:1;stroke-linecap:butt;stroke-linejoin:miter;stroke-miterlimit:10;stroke-dasharray:none;stroke-dashoffset:0"></path>
  <path d="M 143.697 26.754 C 145.061 26.645 146.392 26.895 147.051 28.262 C 147.33 28.827 147.362 29.482 147.139 30.072 C 146.791 31.01 146.149 31.363 145.295 31.746 C 143.861 31.902 142.527 31.658 141.897 30.176 C 141.648 29.595 141.645 28.938 141.883 28.354 C 142.251 27.457 142.863 27.121 143.697 26.754 L 143.697 26.754 Z" fill="#db3330" id="path23" style="font-family:none;mix-blend-mode:normal;fill-rule:nonzero;stroke:none;stroke-width:1;stroke-linecap:butt;stroke-linejoin:miter;stroke-miterlimit:10;stroke-dasharray:none;stroke-dashoffset:0"></path>
  <path d="M 234.264 50.99 C 234.987 51.055 235.159 51.043 235.345 51.732 C 235.154 52.614 227.852 60.71 226.71 61.942 C 225.995 61.878 225.825 61.898 225.623 61.2 C 225.772 60.404 233.257 51.909 234.264 50.99 L 234.264 50.99 Z" fill="#cbcaca" id="path24" style="font-family:none;mix-blend-mode:normal;fill-rule:nonzero;stroke:none;stroke-width:1;stroke-linecap:butt;stroke-linejoin:miter;stroke-miterlimit:10;stroke-dasharray:none;stroke-dashoffset:0"></path>
  <path d="M 193.393 11.991 C 193.97 12.145 194.14 12.238 194.37 12.756 C 194.312 13.491 188.246 20.215 187.31 21.118 C 186.818 21.035 186.589 20.85 186.334 20.428 C 186.341 20.321 186.35 20.191 186.361 20.038 C 188.197 17.732 191.454 14.035 193.393 11.991 L 193.393 11.991 Z" fill="#cbcaca" id="path25" style="font-family:none;mix-blend-mode:normal;fill-rule:nonzero;stroke:none;stroke-width:1;stroke-linecap:butt;stroke-linejoin:miter;stroke-miterlimit:10;stroke-dasharray:none;stroke-dashoffset:0"></path>
  <path d="M 207.135 7.472 C 207.851 7.549 208.067 7.52 208.26 8.238 C 208.008 9.209 203.795 13.679 202.865 14.645 L 202.193 14.496 C 201.769 14.128 201.87 14.315 201.781 13.802 C 201.942 12.958 206.284 8.347 207.135 7.472 L 207.135 7.472 Z" fill="#cbcaca" id="path26" style="font-family:none;mix-blend-mode:normal;fill-rule:nonzero;stroke:none;stroke-width:1;stroke-linecap:butt;stroke-linejoin:miter;stroke-miterlimit:10;stroke-dasharray:none;stroke-dashoffset:0"></path>
  <path d="M 240.261 44.103 L 240.82 44.297 C 240.999 44.502 241.191 44.638 241.128 44.936 C 240.867 46.171 237.854 49.288 237.005 50.089 C 236.238 49.756 236.067 49.764 236.039 48.913 C 236.455 48.175 239.526 44.799 240.261 44.103 L 240.261 44.103 Z" fill="#cbcaca" id="path27" style="font-family:none;mix-blend-mode:normal;fill-rule:nonzero;stroke:none;stroke-width:1;stroke-linecap:butt;stroke-linejoin:miter;stroke-miterlimit:10;stroke-dasharray:none;stroke-dashoffset:0"></path>
  <path d="M 237.037 36.795 C 237.249 36.839 237.459 36.916 237.665 36.982 C 238.666 38.213 235.698 40.554 234.781 41.456 L 234.259 41.315 C 233.854 40.915 233.944 41.11 233.879 40.59 C 234.208 39.454 236.136 37.718 237.037 36.795 L 237.037 36.795 Z" fill="#cbcaca" id="path28" style="font-family:none;mix-blend-mode:normal;fill-rule:nonzero;stroke:none;stroke-width:1;stroke-linecap:butt;stroke-linejoin:miter;stroke-miterlimit:10;stroke-dasharray:none;stroke-dashoffset:0"></path>
  <path d="M 223.771 62.849 L 224.408 62.956 C 224.845 63.319 224.742 63.135 224.842 63.636 C 224.572 64.731 222.848 66.398 222.015 67.302 C 221.867 67.314 221.578 67.282 221.417 67.269 C 220.988 66.934 221.104 67.12 221 66.565 C 221.203 65.553 223.023 63.683 223.771 62.849 L 223.771 62.849 Z" fill="#cbcaca" id="path29" style="font-family:none;mix-blend-mode:normal;fill-rule:nonzero;stroke:none;stroke-width:1;stroke-linecap:butt;stroke-linejoin:miter;stroke-miterlimit:10;stroke-dasharray:none;stroke-dashoffset:0"></path>
  <path d="M 242.066 19.224 C 242.672 19.248 242.766 19.274 243.041 19.767 C 243.066 20.754 241.036 22.761 240.339 23.556 L 239.69 23.432 C 239.246 23.054 239.354 23.249 239.255 22.715 C 239.499 21.68 241.257 20.06 242.066 19.224 L 242.066 19.224 Z" fill="#cbcaca" id="path30" style="font-family:none;mix-blend-mode:normal;fill-rule:nonzero;stroke:none;stroke-width:1;stroke-linecap:butt;stroke-linejoin:miter;stroke-miterlimit:10;stroke-dasharray:none;stroke-dashoffset:0"></path>
  <path d="M 246.454 14.067 C 247.175 14.157 247.317 14.2 247.516 14.855 C 247.31 15.906 245.644 17.438 244.841 18.276 C 244.178 18.24 244.046 18.207 243.784 17.641 C 243.832 16.717 245.731 14.89 246.454 14.067 Z" fill="#cbcaca" id="path31" style="font-family:none;mix-blend-mode:normal;fill-rule:nonzero;stroke:none;stroke-width:1;stroke-linecap:butt;stroke-linejoin:miter;stroke-miterlimit:10;stroke-dasharray:none;stroke-dashoffset:0"></path>
  <path d="M 232.193 42.352 L 232.749 42.397 C 233.211 42.708 233.098 42.543 233.253 42.998 C 233.148 43.868 231.133 45.803 230.423 46.588 C 229.787 46.514 229.598 46.426 229.423 45.84 C 229.582 44.828 231.415 43.11 232.193 42.352 Z" fill="#cbcaca" id="path32" style="font-family:none;mix-blend-mode:normal;fill-rule:nonzero;stroke:none;stroke-width:1;stroke-linecap:butt;stroke-linejoin:miter;stroke-miterlimit:10;stroke-dasharray:none;stroke-dashoffset:0"></path>
  <path d="M 237.409 24.511 L 238.05 24.615 C 238.443 24.956 238.348 24.783 238.444 25.253 C 238.26 26.226 236.55 27.85 235.805 28.644 C 235.108 28.522 234.9 28.554 234.722 27.843 C 234.973 26.796 236.596 25.34 237.409 24.511 L 237.409 24.511 Z" fill="#cbcaca" id="path33" style="font-family:none;mix-blend-mode:normal;fill-rule:nonzero;stroke:none;stroke-width:1;stroke-linecap:butt;stroke-linejoin:miter;stroke-miterlimit:10;stroke-dasharray:none;stroke-dashoffset:0"></path>
  <path d="M 184.773 21.841 C 185.361 21.922 185.511 22.024 185.691 22.553 C 185.591 23.479 183.618 25.388 182.899 26.07 C 182.268 25.963 182.093 25.853 181.956 25.259 C 182.126 24.236 183.973 22.567 184.773 21.841 Z" fill="#cbcaca" id="path34" style="font-family:none;mix-blend-mode:normal;fill-rule:nonzero;stroke:none;stroke-width:1;stroke-linecap:butt;stroke-linejoin:miter;stroke-miterlimit:10;stroke-dasharray:none;stroke-dashoffset:0"></path>
  <path d="M 211.342 2.632 C 212.029 2.656 212.244 2.638 212.492 3.299 C 212.373 4.215 210.784 5.767 210.092 6.528 C 209.436 6.442 209.246 6.408 208.964 5.845 C 209.003 4.924 210.651 3.378 211.342 2.632 L 211.342 2.632 Z" fill="#cbcaca" id="path35" style="font-family:none;mix-blend-mode:normal;fill-rule:nonzero;stroke:none;stroke-width:1;stroke-linecap:butt;stroke-linejoin:miter;stroke-miterlimit:10;stroke-dasharray:none;stroke-dashoffset:0"></path>
  <path d="M 200.255 15.388 C 200.609 15.539 200.647 15.567 200.911 15.849 C 201.334 17.131 199.225 18.913 198.302 19.641 C 197.779 19.219 197.842 19.385 197.622 18.811 C 197.697 17.652 199.402 16.227 200.255 15.388 L 200.255 15.388 Z" fill="#cbcaca" id="path36" style="font-family:none;mix-blend-mode:normal;fill-rule:nonzero;stroke:none;stroke-width:1;stroke-linecap:butt;stroke-linejoin:miter;stroke-miterlimit:10;stroke-dasharray:none;stroke-dashoffset:0"></path>
  <path d="M 223.765 4.99 C 224.162 5.039 224.19 5.074 224.543 5.284 C 225.167 6.41 223.074 8.189 222.256 9 C 221.569 8.948 221.411 8.895 221.237 8.272 C 221.485 7.247 222.989 5.82 223.765 4.99 Z" fill="#cbcaca" id="path37" style="font-family:none;mix-blend-mode:normal;fill-rule:nonzero;stroke:none;stroke-width:1;stroke-linecap:butt;stroke-linejoin:miter;stroke-miterlimit:10;stroke-dasharray:none;stroke-dashoffset:0"></path>
  <path d="M 241.159 31.93 L 241.812 32.065 C 242.224 32.428 242.13 32.252 242.235 32.724 C 242.01 33.718 240.582 35.046 239.827 35.849 C 239.164 35.779 238.997 35.662 238.795 35.076 C 238.944 34.107 240.432 32.711 241.159 31.93 L 241.159 31.93 Z" fill="#cbcaca" id="path38" style="font-family:none;mix-blend-mode:normal;fill-rule:nonzero;stroke:none;stroke-width:1;stroke-linecap:butt;stroke-linejoin:miter;stroke-miterlimit:10;stroke-dasharray:none;stroke-dashoffset:0"></path>
  <path d="M 197.808 6.997 C 198.393 7.283 198.472 7.368 198.604 7.965 C 198.339 9.098 196.863 10.403 195.93 11.037 C 195.432 10.947 195.333 10.795 195.158 10.391 C 195.252 9.37 197.042 7.756 197.808 6.997 L 197.808 6.997 Z" fill="#cbcaca" id="path39" style="font-family:none;mix-blend-mode:normal;fill-rule:nonzero;stroke:none;stroke-width:1;stroke-linecap:butt;stroke-linejoin:miter;stroke-miterlimit:10;stroke-dasharray:none;stroke-dashoffset:0"></path>
  <path d="M 219.842 9.554 C 220.376 9.753 220.532 9.882 220.708 10.395 C 220.588 11.357 219.192 12.53 218.451 13.266 C 217.833 13.094 217.689 13.002 217.475 12.438 C 217.614 11.446 219.069 10.287 219.842 9.554 L 219.842 9.554 Z" fill="#cbcaca" id="path40" style="font-family:none;mix-blend-mode:normal;fill-rule:nonzero;stroke:none;stroke-width:1;stroke-linecap:butt;stroke-linejoin:miter;stroke-miterlimit:10;stroke-dasharray:none;stroke-dashoffset:0"></path>
  <path d="M 227.31 1.05 C 227.761 1.041 227.814 1.056 228.229 1.235 C 229.009 2.242 227.19 3.633 226.443 4.27 C 225.819 4.345 225.571 4.382 225.299 3.823 C 225.366 2.867 226.638 1.741 227.31 1.05 L 227.31 1.05 Z" fill="#cbcaca" id="path41" style="font-family:none;mix-blend-mode:normal;fill-rule:nonzero;stroke:none;stroke-width:1;stroke-linecap:butt;stroke-linejoin:miter;stroke-miterlimit:10;stroke-dasharray:none;stroke-dashoffset:0"></path>
</svg>